<?xml version="1.0" encoding="UTF-8"?>
<svg id="Capa_2" data-name="Capa 2" xmlns="http://www.w3.org/2000/svg" viewBox="0 0 976.38 769.7">
  <defs>
    <style>
      .cls-1 {
        fill: #ea5d14;
      }

      .cls-2 {
        fill: #ee721e;
      }
    </style>
  </defs>
  <g id="Capa_1-2" data-name="Capa 1">
    <g>
      <path class="cls-2" d="M237.68,727.65c-.18,2.53-2.12,24.47-20.62,35.75-9.2,5.61-18.4,6.08-22.99,5.98-55.9.11-111.8.21-167.7.32-1.88-.11-11.83-.89-19.35-9.41C-.2,752.14-.06,742.69.02,740.69c10.77-49.58,21.55-99.16,32.32-148.74,1.56-4.04,9.59-23.49,31.09-32.92,15.36-6.73,29.34-4.73,34.75-3.66,29.72.38,59.45.77,89.17,1.15,9.93,1.13,30.16,2.08,53.03-7.09,26.71-10.71,41.77-29.11,47.67-37.22H90.78c-.69-.1-15.13-2.34-19.51-14.05-1.54-4.13-1.29-7.98-.86-10.45,4.26-21.41,8.52-42.82,12.78-64.23,1.33-3.34,5.03-11.25,13.61-17.16,11.86-8.17,24.46-6.6,27.44-6.15,7.87.24,179.25,5.26,237.59-3.05,15.3-2.18,26.06-5.66,33.09-8.5,19.23-7.78,35.06-19.9,52.62-35.91h-172.08c-4.43,0-16.83-13.31-17.67-18.76-1.21-7.85,11.02-38.61,7.85-42.79-52.36,26.42-108.03,51.3-167.85,53.15L162.25,29.64c1.05-3.91,3.36-10.26,8.71-16.23C181.66,1.45,196.27.2,199.76,0c59.76.03,119.52.05,179.28.08,17.58,1.77,26.98,17.83,23.39,34.69l-31.79,152.92c-40.79,7.57-78.63,31.06-90.98,72.68,13.49-10.52,28.82-17.85,46.17-19.56,94.18-9.3,213.64,28.22,286.78-47.59h-235.04C472.25,128.85,566.92,64.5,661.59.14h314.79c-164.37,142.21-328.74,284.42-493.11,426.63,14.2-3.24,28.41-6.47,42.61-9.71h23.73c4.09.51,10.33,1.79,17.08,5.38,8.66,4.6,13.93,10.73,16.6,14.35,109.58,110.95,219.16,221.89,328.73,332.84h-337.17c-2.36.02-6.33-.25-10.76-2.11-5.37-2.26-8.7-5.71-10.29-7.61-70.88-70.09-141.77-140.18-212.65-210.28-34.49,59.34-68.98,118.69-103.47,178.03Z"/>
      <path class="cls-1" d="M341.14,549.63c-34.49,59.34-68.98,118.69-103.47,178.03-1.28-29.8-2.56-59.6-3.84-89.4-.36-1.76-.82-5.29.44-9.43,1.6-5.26,5.02-8.32,6.41-9.44,26.78-29.93,53.56-59.85,80.34-89.78,6.71,6.68,13.41,13.35,20.12,20.03Z"/>
      <path class="cls-1" d="M525.89,417.06c-5.71,11.16-11.3,20-15.6,26.32-3.93,5.76-34.75,49.91-88.19,76.89-4.13,2.08-22.54,11.38-24.43,8.57-1.15-1.72,4.34-7.24,6.58-9.54,27.6-28.32,28.73-46.33,64.29-80.54,6.65-6.39,16.95-15.71,30.81-25.9-1.85,3.05-3.71,6.09-5.56,9.14-.17.18-.17.4-.09.47.08.07.3.04.47-.16,4.5-2.07,11.04-4.43,19.19-5.27,4.79-.5,9.04-.36,12.55,0Z"/>
    </g>
  </g>
</svg>