<?xml version="1.0" encoding="UTF-8"?>
<svg id="Capa_2" data-name="Capa 2" xmlns="http://www.w3.org/2000/svg" viewBox="0 0 1037.46 995.87">
  <defs>
    <style>
      .cls-1 {
        fill: #ea5d14;
      }

      .cls-2 {
        fill: #4d4d4d;
      }

      .cls-3 {
        fill: #ee721e;
      }

      .cls-4 {
        font-family: Consolas-Bold, Consolas;
        font-size: 208.63px;
        font-weight: 700;
      }
    </style>
  </defs>
  <g id="Capa_1-2" data-name="Capa 1">
    <g>
      <g>
        <path class="cls-3" d="M351.15,486.78c-.12,1.7-1.42,16.37-13.8,23.91-6.15,3.75-12.31,4.07-15.38,4-37.4.07-74.79.14-112.19.21-1.26-.07-7.92-.6-12.95-6.29-4.82-5.45-4.72-11.78-4.67-13.12,7.21-33.17,14.41-66.34,21.62-99.51,1.05-2.7,6.41-15.72,20.8-22.02,10.28-4.51,19.63-3.16,23.25-2.45,19.88.26,39.77.51,59.65.77,6.64.76,20.18,1.39,35.48-4.75,17.87-7.17,27.95-19.48,31.89-24.9h-131.97c-.46-.06-10.12-1.56-13.05-9.4-1.03-2.76-.86-5.34-.57-6.99,2.85-14.32,5.7-28.65,8.55-42.97.89-2.23,3.36-7.52,9.11-11.48,7.93-5.46,16.36-4.41,18.35-4.11,5.27.16,119.92,3.52,158.94-2.04,10.23-1.46,17.44-3.79,22.13-5.69,12.87-5.21,23.45-13.31,35.2-24.02h-115.12c-2.96,0-11.26-8.9-11.82-12.55-.81-5.25,7.37-25.83,5.25-28.63-35.03,17.67-72.27,34.32-112.29,35.56l43.13-210.49c.7-2.61,2.25-6.86,5.83-10.86,7.16-8,16.93-8.83,19.27-8.97,39.98.02,79.96.03,119.94.05,11.76,1.18,18.05,11.93,15.65,23.2l-21.26,102.3c-27.29,5.06-52.6,20.78-60.86,48.62,9.02-7.04,19.28-11.94,30.89-13.08,63-6.22,142.92,18.88,191.85-31.84h-157.24C508.07,86.2,571.4,43.15,634.74.09h210.59c-109.96,95.13-219.92,190.27-329.88,285.4,9.5-2.16,19-4.33,28.51-6.49h15.87c2.74.34,6.91,1.2,11.43,3.6,5.79,3.08,9.32,7.18,11.11,9.6,73.3,74.22,146.61,148.44,219.91,222.66h-225.56c-1.58.02-4.23-.16-7.2-1.41-3.59-1.51-5.82-3.82-6.89-5.09-47.42-46.89-94.84-93.78-142.26-140.67-23.07,39.7-46.14,79.4-69.22,119.1Z"/>
        <path class="cls-1" d="M420.36,367.69c-23.07,39.7-46.14,79.4-69.22,119.1-.86-19.94-1.71-39.87-2.57-59.81-.24-1.18-.55-3.54.29-6.31,1.07-3.52,3.35-5.57,4.29-6.32,17.92-20.02,35.83-40.04,53.75-60.06,4.49,4.47,8.97,8.93,13.46,13.4Z"/>
        <path class="cls-1" d="M543.95,279c-3.82,7.46-7.56,13.38-10.44,17.61-2.63,3.85-23.25,33.39-59,51.44-2.76,1.39-15.08,7.61-16.34,5.73-.77-1.15,2.9-4.84,4.4-6.38,18.46-18.94,19.22-31,43.01-53.88,4.45-4.28,11.34-10.51,20.61-17.32-1.24,2.04-2.48,4.08-3.72,6.11-.11.12-.12.27-.06.31.05.05.2.03.31-.11,3.01-1.38,7.39-2.96,12.84-3.53,3.2-.33,6.05-.24,8.39,0Z"/>
      </g>
      <text class="cls-4" transform="translate(0 751.94) scale(1.13 1)"><tspan class="cls-2"><tspan x="0" y="0">KATALYTH</tspan></tspan><tspan class="cls-3"><tspan x="286.77" y="182.1">One</tspan></tspan></text>
    </g>
  </g>
</svg>

<?xml version="1.0" encoding="UTF-8"?>
<svg id="Capa_2" data-name="Capa 2" xmlns="http://www.w3.org/2000/svg" viewBox="0 0 1037.46 995.87">
  <defs>
    <style>
      .cls-1 {
        fill: #ea5d14;
      }

      .cls-2 {
        fill: #4d4d4d;
      }

      .cls-3 {
        fill: #ee721e;
      }

      .cls-4 {
        font-family: Consolas-Bold, Consolas;
        font-size: 208.63px;
        font-weight: 700;
      }
    </style>
  </defs>
  <g id="Capa_1-2" data-name="Capa 1">
    <g>
      <g>
        <path class="cls-3" d="M351.15,486.78c-.12,1.7-1.42,16.37-13.8,23.91-6.15,3.75-12.31,4.07-15.38,4-37.4.07-74.79.14-112.19.21-1.26-.07-7.92-.6-12.95-6.29-4.82-5.45-4.72-11.78-4.67-13.12,7.21-33.17,14.41-66.34,21.62-99.51,1.05-2.7,6.41-15.72,20.8-22.02,10.28-4.51,19.63-3.16,23.25-2.45,19.88.26,39.77.51,59.65.77,6.64.76,20.18,1.39,35.48-4.75,17.87-7.17,27.95-19.48,31.89-24.9h-131.97c-.46-.06-10.12-1.56-13.05-9.4-1.03-2.76-.86-5.34-.57-6.99,2.85-14.32,5.7-28.65,8.55-42.97.89-2.23,3.36-7.52,9.11-11.48,7.93-5.46,16.36-4.41,18.35-4.11,5.27.16,119.92,3.52,158.94-2.04,10.23-1.46,17.44-3.79,22.13-5.69,12.87-5.21,23.45-13.31,35.2-24.02h-115.12c-2.96,0-11.26-8.9-11.82-12.55-.81-5.25,7.37-25.83,5.25-28.63-35.03,17.67-72.27,34.32-112.29,35.56l43.13-210.49c.7-2.61,2.25-6.86,5.83-10.86,7.16-8,16.93-8.83,19.27-8.97,39.98.02,79.96.03,119.94.05,11.76,1.18,18.05,11.93,15.65,23.2l-21.26,102.3c-27.29,5.06-52.6,20.78-60.86,48.62,9.02-7.04,19.28-11.94,30.89-13.08,63-6.22,142.92,18.88,191.85-31.84h-157.24C508.07,86.2,571.4,43.15,634.74.09h210.59c-109.96,95.13-219.92,190.27-329.88,285.4,9.5-2.16,19-4.33,28.51-6.49h15.87c2.74.34,6.91,1.2,11.43,3.6,5.79,3.08,9.32,7.18,11.11,9.6,73.3,74.22,146.61,148.44,219.91,222.66h-225.56c-1.58.02-4.23-.16-7.2-1.41-3.59-1.51-5.82-3.82-6.89-5.09-47.42-46.89-94.84-93.78-142.26-140.67-23.07,39.7-46.14,79.4-69.22,119.1Z"/>
        <path class="cls-1" d="M420.36,367.69c-23.07,39.7-46.14,79.4-69.22,119.1-.86-19.94-1.71-39.87-2.57-59.81-.24-1.18-.55-3.54.29-6.31,1.07-3.52,3.35-5.57,4.29-6.32,17.92-20.02,35.83-40.04,53.75-60.06,4.49,4.47,8.97,8.93,13.46,13.4Z"/>
        <path class="cls-1" d="M543.95,279c-3.82,7.46-7.56,13.38-10.44,17.61-2.63,3.85-23.25,33.39-59,51.44-2.76,1.39-15.08,7.61-16.34,5.73-.77-1.15,2.9-4.84,4.4-6.38,18.46-18.94,19.22-31,43.01-53.88,4.45-4.28,11.34-10.51,20.61-17.32-1.24,2.04-2.48,4.08-3.72,6.11-.11.12-.12.27-.06.31.05.05.2.03.31-.11,3.01-1.38,7.39-2.96,12.84-3.53,3.2-.33,6.05-.24,8.39,0Z"/>
      </g>
      <text class="cls-4" transform="translate(0 751.94) scale(1.13 1)"><tspan class="cls-2"><tspan x="0" y="0">KATALYTH</tspan></tspan><tspan class="cls-3"><tspan x="286.77" y="182.1">One</tspan></tspan></text>
    </g>
  </g>
</svg>